<svg xmlns="http://www.w3.org/2000/svg" viewBox="0 0 512 512" style="enable-background:new 0 0 512 512" xml:space="preserve"><style>.st3{fill:#5082a9}.st6{fill:#87b7dd}.st16{fill:#a32929}</style><circle cx="256.4" cy="254.4" style="fill:#e4c856" r="256" id="ICON"/><g id="Layer_8"><path class="st3" d="M267.8 261.8h109.3v116.1H267.8z"/><path style="fill:#c9402e" d="m392 266-73.4-90.2H204.3l73.4 90.2z"/><path class="st6" d="M276.4 276.4h100.7v101.5H276.4z"/><path class="st3" d="m204.6 183.5-66.7 78.3v116h133.4v-116z"/><path style="fill:#1f3049" d="M190.6 328h35.3v49.9h-35.3z"/><path class="st16" d="M129 266h12.7l63-73.9 63 73.9h13.9l-76.9-90.2-77 90.4c.4-.2.8-.2 1.3-.2z"/><path style="fill:#f5f5f5" d="M185.8 254.7h44.8v44.8h-44.8z"/><path class="st3" d="M205.4 249.8h5.6v54.7h-5.6z"/><path class="st3" d="M180.9 274.3h54.7v5.6h-54.7z"/><path class="st16" d="M181.6 300.6h53.1v7.6h-53.1z"/><g><path class="st6" d="m350.6 227.4-32.9-32.9v-59.8h32.9z"/><path class="st16" d="M358.8 148.8c0 1.3-1 2.3-2.3 2.3h-44.6c-1.3 0-2.3-1.1-2.3-2.3v-16.4c0-1.3 1-2.3 2.3-2.3h44.6c1.3 0 2.3 1.1 2.3 2.3v16.4z"/></g><path class="st3" d="M123 375h268v12H123z"/></g></svg>